<svg xmlns="http://www.w3.org/2000/svg" width="48.726" height="53" viewBox="0 0 48.726 53"><defs><style>.a{fill:#02a55a;}</style></defs><g transform="translate(-1232.044 624.228)"><path class="a" d="M1256.624-582.72c.546-1.39.934-2.383.962-2.454l.053-.141c.817-2.15.524-2.56.521-2.565l-4.235-4.087a6.26,6.26,0,0,1-1.407-1.734,1.672,1.672,0,0,1,.023-1.484,1.675,1.675,0,0,1,1.194-.892,42.152,42.152,0,0,1,6.991-.328,6.842,6.842,0,0,1-1-4.991,6.258,6.258,0,0,1,5.2-5.416l7.891-13.566c3.93-6.967-1.325-2.465-1.978-1.893-.047.042-.093.079-.142.117-1.165.912-14.64,11.43-14.868,11.585-.22.179-.324.092-.188-.121a9.625,9.625,0,0,0,1.305-4.213c.345-4.612-2.487-8.583-6.326-8.87s-7.229,3.219-7.573,7.831c-.263,3.512,1.232,6.658,3.782,8.075.253.146.49.6-.522.661l-11.211.586c-1.08.084-2.589.094-2.917.448-.768.83,2.032,3.172,2.032,3.172s5.914,5.327,7.536,6.95c1.389,1.3.945,3.656.46,5.157a10.063,10.063,0,0,1-.367.941c-1.073,2.256-7.54,15.778-7.54,15.778-2.019,4.62.815,2.563,1.511,2.013a3.405,3.405,0,0,0,.259-.228l13.407-12.976a2.72,2.72,0,0,1,2.351-.629,3.318,3.318,0,0,1,1.37.643Z"/><path class="a" d="M1293.172-568.757a48.994,48.994,0,0,0-8.345.3.717.717,0,0,0-.519,1.009,5.688,5.688,0,0,0,1.2,1.447l.006.005,4.257,4.112c.8.824-.113,3.043-.363,3.713-.065.178-4.014,10.226-4.014,10.226-1.268,3.317.871,1.392.952,1.319l.007-.007,7.544-7.867a.2.2,0,0,1,.032-.027,1.872,1.872,0,0,1,2.207.087l.006.006,5.239,4.852c1.257,1.165,2.839,3.037,3.24,2.725.5-.366-.484-4.558-.484-4.558l-2.077-8.76a3.688,3.688,0,0,1,.517-3.553l7.982-12.547c3.262-5.338-1.6-1.666-1.6-1.666s-9.316,7.612-9.46,7.592a.144.144,0,0,1-.114-.089,6.223,6.223,0,0,0,1.091-2.632c.5-2.946-1.089-5.669-3.541-6.082s-4.842,1.64-5.339,4.586a5.5,5.5,0,0,0,1.951,5.42s.545.394-.375.394" transform="translate(-30.914 -26.663)"/><path class="a" d="M1307.961-516.949a.879.879,0,0,0-.951-.041l-1.7,1.777c2.07,1.624,4.611,4.086,5.165,3.567.451-.424.288-1.692-.058-3.032Z" transform="translate(-43.392 -63.442)"/></g></svg>