<svg xmlns="http://www.w3.org/2000/svg" width="86.113" height="86.113" viewBox="0 0 86.113 86.113"><defs><style>.a{fill:none;}.b{fill:#c7c7c7;}</style></defs><path class="a" d="M0,0H86.113V86.113H0Z"/><path class="b" d="M60.409,19.94V30.669s-7.14.036-7.176,0V19.94H42.469s.036-7.14,0-7.176H53.233V2h7.176V12.764H71.173V19.94ZM49.645,34.292V23.528H38.881V12.764h-28.7A7.2,7.2,0,0,0,3,19.94V63a7.2,7.2,0,0,0,7.176,7.176H53.233A7.2,7.2,0,0,0,60.409,63v-28.7ZM10.176,63,20.94,48.645l7.176,10.764L38.881,45.057,53.233,63Z" transform="translate(7.764 5.176)"/></svg>