<svg xmlns="http://www.w3.org/2000/svg" width="98.215" height="116.644" viewBox="0 0 98.215 116.644"><defs><style>.a{fill:#25ba7f;}.b{fill:#22aa6f;}.c{fill:#1e8e5b;}.d{fill:#424242;}</style></defs><path class="a" d="M18.163,65.994,56.546,28.275V0L18.163,37.723Z" transform="translate(-6.557 -0.001)"/><path class="b" d="M116.614,65.99,78.23,28.271V0l38.383,37.719Z" transform="translate(-28.241)"/><path class="c" d="M122.092,87.356V59.221L93.46,87.356Z" transform="translate(-33.739 -21.379)"/><path class="d" d="M6.472,163.307A6.066,6.066,0,1,0,9.71,174.5v.936h2.828V169.3h0A6.064,6.064,0,0,0,6.472,163.307Zm0,9.287a3.221,3.221,0,1,1,3.221-3.221A3.221,3.221,0,0,1,6.472,172.594Z" transform="translate(-0.146 -58.953)"/><path class="d" d="M38.968,163.307a6.066,6.066,0,1,0,3.238,11.2v.936h2.828V169.3h0A6.064,6.064,0,0,0,38.968,163.307Zm0,9.287a3.221,3.221,0,1,1,3.221-3.221A3.221,3.221,0,0,1,38.968,172.594Z" transform="translate(-11.877 -58.953)"/><path class="d" d="M54.044,169.352l0,6.14h2.828s.017-6.039.017-6.066a3.223,3.223,0,0,1,2.171-3.043v-2.93A6.066,6.066,0,0,0,54.044,169.352Z" transform="translate(-19.509 -59.006)"/><path class="d" d="M24.132,161.235H21.3v2.181H19.856v2.828H21.3l0,2.458a6.064,6.064,0,0,0,6,5.989v-2.845a3.22,3.22,0,0,1-3.162-3.218c0-.025-.017-2.383-.017-2.383h3.179v-2.828H24.132Z" transform="translate(-7.168 -58.205)"/><path class="b" d="M0,137.733H4.97v-3.451a3.209,3.209,0,0,0-.608-2.075,2.445,2.445,0,0,0-1.917-.857H1.092v-3.157H2.129a6.038,6.038,0,0,1,4.69,1.692,6.671,6.671,0,0,1,1.307,4.532v6.472H0Z" transform="translate(0 -46.278)"/><path class="b" d="M27.732,140.034c0,3.428-1.354,5.817-5.794,5.817a10.58,10.58,0,0,1-3.292-.541l-.225-3.179a10.646,10.646,0,0,0,3.292.563c1.736,0,2.638-.224,2.84-1.8h-.361c-4.308,0-7.733-1.826-7.733-6.358,0-3.945,3.223-6.335,7.733-6.335h3.562Zm-4.466-2.3H24.6v-6.38H23.266a3.422,3.422,0,0,0-3.653,3.178C19.615,136.63,21.238,137.734,23.266,137.734Z" transform="translate(-5.942 -46.279)"/><path class="b" d="M46.36,122.763H43.2v11.883H46.36Z" transform="translate(-15.596 -44.317)"/><path class="b" d="M51.02,132.481a8.865,8.865,0,0,0,.247-2.075V116.834H48.11V130.52a2.848,2.848,0,0,1-.946,2.345,3.994,3.994,0,0,1-2.549.765H38.193l.383,3.157h5.389c2.413,0,4.33-.452,5.614-1.623a4.2,4.2,0,0,0,.519-.563c.452.993,1.42,2.186,4.172,2.186V133.63A4.037,4.037,0,0,1,51.02,132.481Z" transform="translate(-13.788 -42.177)"/><path class="b" d="M62.642,134.574h9.215V132.16a3.209,3.209,0,0,0-.608-2.075,2.462,2.462,0,0,0-1.917-.879H64.739a5.4,5.4,0,0,1-1.082-3.134l3.653-6.629h3.381L67.2,126.072h1.82a6.038,6.038,0,0,1,4.69,1.692,6.674,6.674,0,0,1,1.307,4.532v5.434H62.642Z" transform="translate(-22.613 -43.119)"/><path class="d" d="M89.274,143.918l-.225-3.157a5.324,5.324,0,0,0,1.487.2c1.262,0,1.692-.655,1.692-2.211V128.194h3.157V138.3c0,4.08-1.284,5.817-4.51,5.817A6.166,6.166,0,0,1,89.274,143.918Z" transform="translate(-32.147 -46.278)"/><path class="d" d="M105.667,119.447h3.157v15.128h2.884v3.157h-6.041Z" transform="translate(-38.146 -43.12)"/><path class="d" d="M114.414,134.831H128.09v-9.536h3.157v12.693H114.414Zm10.927-13.076a1.767,1.767,0,0,1,3.518,0,1.765,1.765,0,0,1-3.518,0Zm4.893,0a1.766,1.766,0,0,1,3.517,0,1.764,1.764,0,0,1-3.517,0Z" transform="translate(-41.303 -43.375)"/><path class="d" d="M147.992,123.478h3.157v15.709h-3.157Z" transform="translate(-53.425 -44.575)"/><path class="d" d="M148.845,117.552a1.7,1.7,0,0,1-.01-.2c-.027-.622.4-.931,1.27-.931a2.263,2.263,0,0,1,.931.138l.257-1.684a4.99,4.99,0,0,0-1.23-.138,3.194,3.194,0,0,0-2.141.674,2.706,2.706,0,0,0-.891,2.221,4.966,4.966,0,0,0,.059.734,3.84,3.84,0,0,0,.1.486c.04.139.079.262.118.368h3.927v-1.467h-2.359A1.479,1.479,0,0,1,148.845,117.552Z" transform="translate(-53.077 -41.42)"/><path class="b" d="M70.851,163.322a8.532,8.532,0,0,1,4.024.948l-1.156,2.6a5.481,5.481,0,0,0-2.744-.721,3.312,3.312,0,1,0,0,6.625,5.285,5.285,0,0,0,2.744-.721l1.156,2.621a8.521,8.521,0,0,1-4.024.928,6.141,6.141,0,1,1,0-12.28Z" transform="translate(-23.326 -58.959)"/><path class="b" d="M84.191,173.112v-16h2.89v16Z" transform="translate(-30.393 -56.718)"/><path class="b" d="M92.4,169.472a6.3,6.3,0,1,1,6.3,6.13A6.135,6.135,0,0,1,92.4,169.472Zm9.556,0a3.261,3.261,0,1,0-3.26,3.3A3.168,3.168,0,0,0,101.953,169.472Z" transform="translate(-33.355 -58.959)"/><path class="b" d="M122.609,163.968h2.89v11.021a14.116,14.116,0,0,1-4.975.847c-2.971,0-5.263-1.155-5.263-4.767v-7.1h2.89v6.274c0,2.127.659,2.766,2.292,2.766a8.015,8.015,0,0,0,2.166-.289Z" transform="translate(-41.609 -59.192)"/><path class="b" d="M143.533,155.955h2.89v16.388a17.563,17.563,0,0,1-4.663.6c-4.293,0-6.79-2.643-6.79-6.108s2.6-6.17,6.563-6.17a16.46,16.46,0,0,1,2,.165v-4.873Zm-1.8,14.16a8.145,8.145,0,0,0,1.8-.227v-6.15a6.892,6.892,0,0,0-1.8-.247c-2.27,0-3.735,1.094-3.735,3.344S139.468,170.115,141.738,170.115Z" transform="translate(-48.724 -56.299)"/></svg>