<svg xmlns="http://www.w3.org/2000/svg" width="649.366" height="564.071" viewBox="0 0 649.366 564.071"><defs><style>.a{fill:#25ba7f;opacity:0.1;}.b{fill:#22aa6f;}.c{fill:rgba(83,121,133,0.17);}.d,.k{fill:#fff;}.e{fill:rgba(65,107,120,0.35);}.f{fill:#416a78;}.g{fill:#16303e;}.h{fill:#263238;}.i{fill:#416b78;}.j,.k,.l{opacity:0.2;}.m{fill:#455a64;}</style></defs><path class="a" d="M649.366,237.859c0,21.507-145.417,38.859-324.561,38.859C145.417,276.719,0,259.366,0,237.859S145.417,199,324.561,199C503.949,199,649.366,216.352,649.366,237.859Z" transform="translate(0 287.353)"/><path class="b" d="M393.289,244.8H159.4V109.4H393.289ZM160.622,243.33h231.2V110.866h-231.2Z" transform="translate(230.171 157.972)"/><path class="c" d="M326.66,138.9H172.2v4.644H326.66Z" transform="translate(248.654 200.569)"/><path class="c" d="M337.169,145.9H172.2v4.888H337.169Z" transform="translate(248.654 210.677)"/><path class="c" d="M337.169,152.8H172.2v4.888H337.169Z" transform="translate(248.654 220.641)"/><path class="c" d="M226.212,128.9H172.2v11.731h54.012Z" transform="translate(248.654 186.129)"/><path class="b" d="M392.267,109.7H159.6v21.507H392.267Z" transform="translate(230.46 158.405)"/><path class="d" d="M254.128,118.1c-3.91,4.155-7.088,7.821-6.6,8.065.244.244,3.666-2.933,7.821-7.088,3.91-4.155,7.088-7.821,6.6-8.065S258.283,113.941,254.128,118.1Z" transform="translate(357.357 160.274)"/><path class="d" d="M254.107,119.073c3.91,4.155,7.576,7.332,7.821,7.088s-2.688-3.91-6.6-8.065-7.576-7.332-7.821-7.088S250.2,114.918,254.107,119.073Z" transform="translate(357.378 160.274)"/><path class="e" d="M274.767,0H42.1V133.93H274.767Z" transform="translate(60.792)"/><path class="c" d="M209.06,29.2H54.6v4.643H209.06Z" transform="translate(78.842 42.164)"/><path class="c" d="M219.669,36.1H54.7v4.888H219.669Z" transform="translate(78.986 52.128)"/><path class="c" d="M219.669,43.1H54.7v4.888H219.669Z" transform="translate(78.986 62.236)"/><path class="c" d="M108.612,19.2H54.6V30.931h54.012Z" transform="translate(78.842 27.724)"/><path class="b" d="M274.767,0H42.1V21.507H274.767Z" transform="translate(60.792)"/><path class="d" d="M136.328,8.3c-3.91,4.155-7.088,7.821-6.6,8.065.244.244,3.666-2.933,7.821-7.088,3.91-4.155,7.088-7.821,6.6-8.065S140.239,4.141,136.328,8.3Z" transform="translate(187.255 1.725)"/><path class="d" d="M136.33,9.273c3.91,4.155,7.576,7.332,7.821,7.088s-2.688-3.91-6.6-8.065-7.576-7.332-7.821-7.088C129.243,1.7,132.175,5.118,136.33,9.273Z" transform="translate(187.253 1.725)"/><path class="f" d="M239.389,181.8H5.5V46.4H239.389ZM6.966,180.33h231.2V47.867H6.966Z" transform="translate(7.942 67.001)"/><path class="c" d="M172.76,76H18.3v4.644H172.76Z" transform="translate(26.425 109.743)"/><path class="c" d="M183.269,82.9H18.3v4.888H183.269Z" transform="translate(26.425 119.706)"/><path class="c" d="M183.269,89.9H18.3v4.888H183.269Z" transform="translate(26.425 129.814)"/><path class="c" d="M72.312,65.9H18.3V77.631H72.312Z" transform="translate(26.425 95.159)"/><path class="b" d="M238.367,46.7H5.7V68.207H238.367Z" transform="translate(8.231 67.434)"/><path class="e" d="M373.859,114.5H99.4V360.365H374.1V114.5Z" transform="translate(143.532 165.336)"/><path class="c" d="M232.071,82.8H17V306.18H232.071Z" transform="translate(24.548 119.562)"/><path class="b" d="M232.071,82.8H17v24.44H232.071Z" transform="translate(24.548 119.562)"/><path class="d" d="M25,95.087a4.6,4.6,0,0,0,4.4-4.644A4.441,4.441,0,0,0,25,85.8a4.6,4.6,0,0,0-4.4,4.644A4.441,4.441,0,0,0,25,95.087Z" transform="translate(29.746 123.894)"/><path class="d" d="M32.5,95.087a4.6,4.6,0,0,0,4.4-4.644A4.441,4.441,0,0,0,32.5,85.8a4.6,4.6,0,0,0-4.4,4.644A4.441,4.441,0,0,0,32.5,95.087Z" transform="translate(40.576 123.894)"/><path class="d" d="M40,95.087a4.6,4.6,0,0,0,4.4-4.644A4.441,4.441,0,0,0,40,85.8a4.6,4.6,0,0,0-4.4,4.644A4.441,4.441,0,0,0,40,95.087Z" transform="translate(51.406 123.894)"/><path class="c" d="M404.659,20H130.2V293.726H404.659Z" transform="translate(188.007 28.88)"/><path class="b" d="M404.659,20H130.2V52.016H404.659Z" transform="translate(188.007 28.88)"/><path class="d" d="M140.766,36.12a6.115,6.115,0,1,0-5.866-6.11A6,6,0,0,0,140.766,36.12Z" transform="translate(194.793 34.511)"/><path class="d" d="M155.156,34.356a6.232,6.232,0,0,0-8.8-8.8,6.232,6.232,0,0,0,8.8,8.8Z" transform="translate(208.998 34.565)"/><path class="d" d="M160.566,36.12a6.115,6.115,0,1,0-5.866-6.11A5.85,5.85,0,0,0,160.566,36.12Z" transform="translate(223.384 34.511)"/><path class="g" d="M194.217,263.411c-22-15.4-27.128-43.992-26.151-69.654.244-4.4-.244-8.8,1.711-12.464s6.843-6.354,10.754-4.644c3.177,1.466,4.644,5.132,6.354,8.309a23.507,23.507,0,0,0,10.02,9.532c2.688,1.466,6.11,2.2,8.8.733,3.666-1.955,4.155-7.088,4.155-11.487,0-8.065,0-15.886-.244-23.951,0-4.155,0-8.554,1.222-12.709s4.155-7.821,8.309-9.043,9.043,1.222,10.02,5.377a39.425,39.425,0,0,1,0,5.377c0,1.711.978,3.666,2.688,4.155s3.422-.733,4.644-1.955c4.4-4.4,7.332-9.776,10.265-15.4,2.688-5.621,5.621-11.242,9.532-15.886s9.532-8.31,15.641-8.8c6.11-.244,12.709,3.422,14.175,9.532s-1.955,12.22-5.866,17.108a90.194,90.194,0,0,1-19.8,18.819c-1.222.978-2.688,1.955-3.422,3.666-.978,2.933,1.711,5.621,4.644,6.6,3.177.978,6.6.733,10.02,1.222s6.843,1.955,8.31,4.888c1.711,4.4-1.955,9.043-5.377,11.976a77.165,77.165,0,0,1-24.2,13.931c-3.177,1.222-6.354,2.2-9.043,4.4-2.444,2.2-4.155,6.11-2.444,9.043,1.466,2.933,5.377,3.91,8.8,3.422,3.177-.489,6.354-2.444,9.287-3.666,5.866-2.2,13.442-1.711,17.108,3.177,2.444,3.422,2.688,8.065,1.466,11.975a31.066,31.066,0,0,1-6.354,10.509A83.989,83.989,0,0,1,234.3,262.189C220.856,267.077,207.9,268.3,194.217,263.411Z" transform="translate(242.523 160.131)"/><path class="h" d="M265.025,112.5l-.489.489-1.222,1.222c-1.222.978-2.688,2.444-4.888,4.4a179.61,179.61,0,0,0-16.375,17.6c-3.177,3.91-6.354,8.554-10.02,13.2-3.422,4.888-7.088,10.02-10.754,15.886a163.552,163.552,0,0,0-10.509,18.33,99.781,99.781,0,0,0-4.644,10.265c-1.466,3.422-2.933,7.088-4.644,10.509-6.11,14.419-11.487,28.106-15.153,41.059a184.45,184.45,0,0,0-7.088,34.949,169.3,169.3,0,0,0-.489,24.2q.367,4.4.733,6.6c0,.733.244,1.222.244,1.711v0c0-.489-.244-.978-.244-1.711q-.367-2.2-.733-6.6A134.907,134.907,0,0,1,179,280.4a182.871,182.871,0,0,1,7.088-35.193c3.666-12.953,9.043-26.884,15.153-41.3,1.466-3.666,2.933-7.088,4.644-10.509,1.466-3.422,2.933-6.843,4.644-10.265a163.571,163.571,0,0,1,10.509-18.33c3.666-5.621,7.332-11,10.754-15.641,3.422-4.888,6.843-9.287,10.02-13.2a129.5,129.5,0,0,1,16.619-17.352c2.2-1.955,3.666-3.422,4.888-4.4.489-.489.978-.733,1.222-.978C264.781,112.5,265.025,112.5,265.025,112.5Z" transform="translate(257.498 162.448)"/><path class="h" d="M195.11,169.024s-.244-.733-.489-1.711q-.367-1.833-.733-5.132c-.489-4.155-1.222-10.265-1.955-16.619-.733-6.6-1.466-12.464-1.955-16.619a43.45,43.45,0,0,0-.733-4.888A11.072,11.072,0,0,1,189,122.1s.244.733.489,1.711c.244,1.222.733,2.933.978,4.888a164.592,164.592,0,0,1,2.2,16.619c.733,6.354,1.222,12.22,1.711,16.619a44.779,44.779,0,0,1,.489,5.132A14.543,14.543,0,0,1,195.11,169.024Z" transform="translate(272.913 176.31)"/><path class="h" d="M246.49,137.1a7.674,7.674,0,0,1-2.2.244c-1.466.244-3.422.244-5.866.489-5.132.489-11.976,1.466-19.552,2.933s-14.419,2.933-19.307,4.4a50.536,50.536,0,0,1-5.866,1.466,7.9,7.9,0,0,1-2.2.489s.733-.244,1.955-.733a31.7,31.7,0,0,1,5.621-1.711c4.888-1.466,11.731-3.177,19.307-4.644a152.142,152.142,0,0,1,19.552-2.688,59.921,59.921,0,0,1,6.11-.244Z" transform="translate(276.523 197.97)"/><path class="h" d="M198.017,207.742a3.026,3.026,0,0,1-.489-.733,14.412,14.412,0,0,0-.978-1.955c-.733-1.711-1.955-4.155-3.177-7.332-2.688-6.354-6.11-15.153-9.532-24.929-3.666-9.776-6.843-18.574-9.532-24.929-1.222-3.177-2.2-5.621-2.933-7.576a16.834,16.834,0,0,0-.733-1.955,1.891,1.891,0,0,1-.244-.733,3.025,3.025,0,0,1,.489.733,14.4,14.4,0,0,0,.978,1.955c.733,1.711,1.955,4.155,3.177,7.332,2.688,6.354,6.11,15.153,9.532,24.929,3.666,9.776,6.843,18.574,9.532,24.929,1.222,3.177,2.2,5.621,2.933,7.576a16.833,16.833,0,0,0,.733,1.955A1.891,1.891,0,0,1,198.017,207.742Z" transform="translate(246.055 198.692)"/><path class="h" d="M254.631,156.7a1.07,1.07,0,0,1-.733.244,11.367,11.367,0,0,1-2.2.733c-1.955.733-4.644,1.466-7.821,2.444-6.6,2.2-15.641,5.132-25.662,8.554s-19.063,6.354-25.662,8.31c-3.422.978-6.11,1.711-7.821,2.2a9.068,9.068,0,0,1-2.2.489,1.071,1.071,0,0,0-.733.244,1.071,1.071,0,0,1,.733-.244,11.36,11.36,0,0,1,2.2-.733c1.955-.733,4.644-1.466,7.821-2.444,6.6-2.2,15.642-5.132,25.662-8.554s19.063-6.354,25.662-8.31c3.422-.978,6.11-1.711,7.821-2.2a9.072,9.072,0,0,1,2.2-.489A1.891,1.891,0,0,1,254.631,156.7Z" transform="translate(262.516 226.272)"/><path class="f" d="M248.837,32.542l-7.332,2.688L238.328,25.7c-5.866-17.841-24.44-27.128-41.3-21.263-16.863,6.11-25.906,25.417-20.285,43.014l3.177,9.532-7.332,2.688c-5.621,1.955-8.8,8.554-6.843,14.664L186.271,136.9a11.154,11.154,0,0,0,14.175,7.332L276.7,116.86a11.689,11.689,0,0,0,6.843-14.908L263.013,39.385A11.287,11.287,0,0,0,248.837,32.542Zm-58.167,10.02c-3.177-9.776,1.711-20.285,11-23.707s19.307,1.955,22.729,11.487l3.177,9.532L193.848,51.85Zm43.014,55.478,5.132,15.886a1.491,1.491,0,0,1-.733,1.711l-7.332,2.688a1.089,1.089,0,0,1-1.466-.733l-5.132-15.886A14.269,14.269,0,0,1,211.2,91.687c-2.444-7.821,1.466-16.13,8.8-18.819s15.4,1.466,18.085,9.287A15.677,15.677,0,0,1,233.685,98.041Z" transform="translate(238.493 3.873)"/><path class="h" d="M201.9,27.392c16.863-6.11,30.794-11.242,30.55-11.487,0-.244-13.931,4.644-30.794,10.754S170.857,37.9,171.1,38.146C171.1,38.39,185.033,33.746,201.9,27.392Z" transform="translate(247.064 22.954)"/><path class="h" d="M236.4,17.145l.244.489a4.129,4.129,0,0,0,.489,1.222,22.729,22.729,0,0,1,1.466,4.4c1.222,3.91,3.177,9.287,5.377,15.886,2.2,6.843,5.132,14.908,8.065,23.706,1.466,4.4,3.177,9.043,4.644,13.931a20.883,20.883,0,0,1,.978,7.821,10.47,10.47,0,0,1-1.222,3.91,16.828,16.828,0,0,1-2.688,3.177,29.415,29.415,0,0,1-7.332,3.666c-2.444.978-4.888,1.711-7.332,2.688-4.888,1.711-9.532,3.422-13.931,4.888-8.8,3.177-16.864,6.11-23.462,8.31-6.6,2.444-12.22,4.155-15.886,5.621a30.375,30.375,0,0,1-4.4,1.466c-.489.244-.733.244-1.222.489H179.7l.489-.244a4.131,4.131,0,0,0,1.222-.489c.978-.489,2.444-.978,4.4-1.711,3.91-1.466,9.287-3.422,15.886-5.866s14.664-5.377,23.462-8.554c4.4-1.711,9.043-3.177,13.931-5.132,2.444-.978,4.888-1.711,7.332-2.688a27.936,27.936,0,0,0,7.088-3.666,7.185,7.185,0,0,0,2.444-2.933,10.241,10.241,0,0,0,.978-3.666,19.621,19.621,0,0,0-.978-7.576c-1.466-4.888-3.177-9.531-4.644-13.93-2.933-9.043-5.621-16.864-7.821-23.707s-3.91-12.22-5.132-16.13a22.723,22.723,0,0,0-1.466-4.4,2.2,2.2,0,0,1-.244-1.222C236.4,17.389,236.4,17.145,236.4,17.145Z" transform="translate(259.484 24.403)"/><path class="h" d="M204.594,10.877a10.033,10.033,0,0,0-2.2-.978,18.139,18.139,0,0,0-6.354-1.222,22.813,22.813,0,0,0-9.287,1.711,22.5,22.5,0,0,0-8.8,7.332,18.621,18.621,0,0,0-3.422,10.754A32.141,32.141,0,0,0,176,37.761c.733,2.688,1.466,4.644,1.955,6.11l.733,2.2a10.035,10.035,0,0,1-.978-2.2c-.489-1.466-1.466-3.422-2.2-6.11a34.976,34.976,0,0,1-1.711-9.532,19.541,19.541,0,0,1,3.422-11.242,22.193,22.193,0,0,1,9.043-7.576A23.905,23.905,0,0,1,195.8,7.7a27.266,27.266,0,0,1,6.354,1.466c.733.244,1.222.733,1.466.733C204.594,10.633,204.594,10.877,204.594,10.877Z" transform="translate(250.964 11.119)"/><path class="h" d="M191.5,32.811a1.07,1.07,0,0,1,.733-.244,11.362,11.362,0,0,1,2.2-.733q1.466-.367,3.666-.733a13.67,13.67,0,0,1,5.132.733c3.666,1.222,7.088,5.132,8.554,10.02a13.75,13.75,0,0,1,0,8.31,20.123,20.123,0,0,1-4.644,7.821V57.5c1.955,5.132,3.91,10.754,6.11,16.863l.244.244h-.244c-.978.244-2.2.733-3.177.978-2.444.733-4.888,1.711-7.088,2.444h-.244V77.78c-1.955-5.866-4.155-11.487-5.621-16.863l.244.244a14.994,14.994,0,0,1-7.576-2.933,20.722,20.722,0,0,1-4.888-5.621c-.978-2.2-1.711-4.4-1.466-6.354a14.5,14.5,0,0,1,1.222-5.621,15.462,15.462,0,0,1,4.888-6.354,4.1,4.1,0,0,1,1.955-1.466,25.4,25.4,0,0,0-2.444,1.466,17.718,17.718,0,0,0-4.644,6.354,13.625,13.625,0,0,0,.489,11.487,16.068,16.068,0,0,0,4.644,5.377,15.032,15.032,0,0,0,7.332,2.933h.244v.244c1.466,5.377,3.666,10.754,5.621,16.863l-.489-.244c2.444-.733,4.644-1.466,7.088-2.444a22.7,22.7,0,0,1,3.177-.978l-.244.489c-2.2-5.866-4.155-11.487-6.11-16.863v-.244l.244-.244a16.421,16.421,0,0,0,4.4-7.332,14.172,14.172,0,0,0,0-7.821c-1.466-4.888-4.888-8.554-8.31-9.776a8.9,8.9,0,0,0-4.888-.733,14.793,14.793,0,0,0-3.666.489C192.479,32.566,191.5,33.055,191.5,32.811Z" transform="translate(264.79 44.908)"/><path class="i" d="M118.733,144.354a3.187,3.187,0,1,0-2.933-3.177A2.893,2.893,0,0,0,118.733,144.354Z" transform="translate(167.213 199.27)"/><path class="i" d="M122.433,144.454a3.187,3.187,0,1,0-2.933-3.177A3.189,3.189,0,0,0,122.433,144.454Z" transform="translate(172.556 199.414)"/><path class="i" d="M126.133,144.454a3.187,3.187,0,1,0-2.933-3.177A3.031,3.031,0,0,0,126.133,144.454Z" transform="translate(177.899 199.414)"/><path class="i" d="M129.833,144.454a3.187,3.187,0,1,0-2.933-3.177A3.2,3.2,0,0,0,129.833,144.454Z" transform="translate(183.242 199.414)"/><path class="i" d="M133.633,144.454a3.187,3.187,0,1,0-2.933-3.177A3.031,3.031,0,0,0,133.633,144.454Z" transform="translate(188.729 199.414)"/><path class="i" d="M137.333,144.454a3.187,3.187,0,1,0-2.933-3.177A3.031,3.031,0,0,0,137.333,144.454Z" transform="translate(194.071 199.414)"/><path class="i" d="M141.033,144.454a3.187,3.187,0,1,0-2.933-3.177A2.893,2.893,0,0,0,141.033,144.454Z" transform="translate(199.414 199.414)"/><path class="i" d="M144.733,144.554a3.187,3.187,0,1,0-2.933-3.177A3.2,3.2,0,0,0,144.733,144.554Z" transform="translate(204.757 199.559)"/><path class="i" d="M148.533,144.554a3.187,3.187,0,1,0-2.933-3.177A3.031,3.031,0,0,0,148.533,144.554Z" transform="translate(210.244 199.559)"/><g class="j" transform="translate(283.013 337.27)"><g class="j"><path class="k" d="M118.733,144.354a3.187,3.187,0,1,0-2.933-3.177A2.893,2.893,0,0,0,118.733,144.354Z" transform="translate(-115.8 -138)"/></g><g class="j" transform="translate(9.043 0.244)"><path class="k" d="M122.433,144.454a3.187,3.187,0,1,0-2.933-3.177A3.189,3.189,0,0,0,122.433,144.454Z" transform="translate(-119.5 -138.1)"/></g><g class="j" transform="translate(18.085 0.244)"><path class="k" d="M126.133,144.454a3.187,3.187,0,1,0-2.933-3.177A3.031,3.031,0,0,0,126.133,144.454Z" transform="translate(-123.2 -138.1)"/></g><g class="j" transform="translate(27.128 0.244)"><path class="k" d="M129.833,144.454a3.187,3.187,0,1,0-2.933-3.177A3.2,3.2,0,0,0,129.833,144.454Z" transform="translate(-126.9 -138.1)"/></g><g class="j" transform="translate(36.415 0.244)"><path class="k" d="M133.633,144.454a3.187,3.187,0,1,0-2.933-3.177A3.031,3.031,0,0,0,133.633,144.454Z" transform="translate(-130.7 -138.1)"/></g><g class="j" transform="translate(45.458 0.244)"><path class="k" d="M137.333,144.454a3.187,3.187,0,1,0-2.933-3.177A3.031,3.031,0,0,0,137.333,144.454Z" transform="translate(-134.4 -138.1)"/></g><g class="j" transform="translate(54.501 0.244)"><path class="k" d="M141.033,144.454a3.187,3.187,0,1,0-2.933-3.177A2.893,2.893,0,0,0,141.033,144.454Z" transform="translate(-138.1 -138.1)"/></g><g class="j" transform="translate(63.544 0.489)"><path class="k" d="M144.733,144.554a3.187,3.187,0,1,0-2.933-3.177A3.2,3.2,0,0,0,144.733,144.554Z" transform="translate(-141.8 -138.2)"/></g><g class="j" transform="translate(72.831 0.489)"><path class="k" d="M148.533,144.554a3.187,3.187,0,1,0-2.933-3.177A3.031,3.031,0,0,0,148.533,144.554Z" transform="translate(-145.6 -138.2)"/></g></g><path class="i" d="M43.635,9.1H42.9a6.074,6.074,0,0,0-1.955.244,16.82,16.82,0,0,0-3.177.489c-.733.244-1.222.244-1.955.489l-2.2.733a34.518,34.518,0,0,0-10.509,5.132A36.374,36.374,0,0,0,12.841,27.674a42.765,42.765,0,0,0-3.666,8.31A40.956,40.956,0,0,0,7.708,45.76a35.972,35.972,0,0,0,0,5.132c0,.978.244,1.711.244,2.688a10.394,10.394,0,0,0,.489,2.688,37.182,37.182,0,0,0,3.91,10.265A37.931,37.931,0,0,0,29.7,82.42a30.6,30.6,0,0,0,12.22,2.688,32.9,32.9,0,0,0,12.709-1.955l1.222-.489h.489c6.11,3.177,12.22,6.11,18.085,9.043l-.489.489c-1.955-5.866-3.91-11.731-5.621-17.352V74.6l.244-.244A37.652,37.652,0,0,0,78.1,58.713a43.555,43.555,0,0,0,1.466-16.619,42.09,42.09,0,0,0-4.644-14.175A37.221,37.221,0,0,0,66.853,17.9a40.469,40.469,0,0,0-8.8-5.621,44.445,44.445,0,0,0-7.576-2.444c-.978-.244-1.955-.244-2.688-.489A4.764,4.764,0,0,1,45.835,9.1h1.711c.733.244,1.711.244,2.933.489a41.3,41.3,0,0,1,7.576,2.2A33.9,33.9,0,0,1,67.1,17.41a43.2,43.2,0,0,1,8.31,10.02,38.739,38.739,0,0,1,4.888,14.419,41.224,41.224,0,0,1-1.222,17.108,37.766,37.766,0,0,1-9.532,16.13V74.6c1.711,5.621,3.666,11.242,5.621,17.352l.244.978-.733-.489C68.808,89.507,62.7,86.33,56.588,83.4h.244l-1.222.489a34.657,34.657,0,0,1-13.2,1.955,35.79,35.79,0,0,1-12.464-2.933,36.619,36.619,0,0,1-17.6-16.13A34.936,34.936,0,0,1,8.2,56.269a10.394,10.394,0,0,1-.489-2.688c0-.978-.244-1.711-.244-2.688a39.43,39.43,0,0,1,0-5.377A31.531,31.531,0,0,1,9.175,35.74a42.765,42.765,0,0,1,3.666-8.31A38.243,38.243,0,0,1,23.35,15.7,38.47,38.47,0,0,1,34.1,10.566a7.136,7.136,0,0,1,2.2-.489,6.074,6.074,0,0,1,1.955-.244,15.033,15.033,0,0,1,3.177-.244h1.955C43.391,9.1,43.635,9.1,43.635,9.1Z" transform="translate(10.621 13.14)"/><path class="b" d="M19.2,47.762h4.644s11,1.711,13.2,1.711a1.469,1.469,0,0,0,.978-.244A5.075,5.075,0,0,0,41.685,44.1c0-4.644-.244-13.2-.733-13.931-.733-.733-9.287-.733-9.287-.733s-.489,1.711,0-5.132S28,17.7,28,17.7v5.377l-5.866,8.065H19.445V47.762Z" transform="translate(27.725 25.558)"/><path class="b" d="M22.21,23.089v17.6h-4.4L16.1,22.6Z" transform="translate(23.248 32.634)"/><path class="l" d="M71.2,148.355c1.466,2.2,3.666,2.933,6.354,3.422a19.786,19.786,0,0,0,7.576-.244c16.375-1.711,33.727-3.422,49.613-7.332-20.774,1.222-42.525.733-63.3,1.955,0,0-.244,1.466-.244,1.711" transform="translate(102.812 208.222)"/><g class="j" transform="translate(195.519 385.661)"><path class="l" d="M80,157.8l11.731,45.214L91,159.511Z" transform="translate(-80 -157.8)"/></g><path class="m" d="M264.767,449.009l-142.729-.733A31.135,31.135,0,0,1,91,416.993L92.466,59.439A31.135,31.135,0,0,1,123.749,28.4l142.729.733a31.136,31.136,0,0,1,31.039,31.283L296.05,417.971A30.828,30.828,0,0,1,264.767,449.009Z" transform="translate(131.403 41.009)"/><path class="d" d="M260.7,34.089l-27.617-.244a7.046,7.046,0,0,0-6.843,7.088v5.132a6.888,6.888,0,0,1-6.843,7.088l-54.012-.244a6.845,6.845,0,0,1-6.6-7.088V40.688a6.845,6.845,0,0,0-6.6-7.088H118.218A21.644,21.644,0,0,0,96.466,55.352L95,404.108a21.644,21.644,0,0,0,21.751,21.751l142.24.733a21.644,21.644,0,0,0,21.751-21.751l1.466-349C282.454,44.109,272.678,34.333,260.7,34.089Z" transform="translate(137.178 48.518)"/><path class="b" d="M218.78,194.483l-105.824-.489c-.978,0-1.955-1.222-1.955-2.688V163.688c0-1.466.978-2.688,1.955-2.688l105.824.489c.978,0,1.955,1.222,1.955,2.688v27.617C220.735,193.261,219.757,194.483,218.78,194.483Z" transform="translate(160.282 232.481)"/><path class="i" d="M141.96,75.944,105.3,75.7v6.843l36.66.244Z" transform="translate(152.051 109.31)"/><path class="f" d="M249.928,107.717a1.892,1.892,0,0,0,.733-.244,2.607,2.607,0,0,0,1.466-1.955V86.7a2.939,2.939,0,0,0-.489-1.955,2.474,2.474,0,0,0-1.711-.977H227.2c-30.55,0-72.831-.245-119.511-.489a1.478,1.478,0,0,0-1.466.733,2.633,2.633,0,0,0-.489,1.955v19.063a2.008,2.008,0,0,0,1.222,1.222c.244,0,.489.244.978.244h7.332c11,0,21.507,0,31.772.244,20.285,0,38.371.245,53.768.245,15.153.244,27.617.244,36.171.244H249.2c.489.489.733.489.733.489H200.56c-15.4,0-33.483,0-53.768-.244-10.02,0-20.774,0-31.772-.244h-7.332a2.657,2.657,0,0,1-1.222-.244A2.584,2.584,0,0,1,105,105.273V84.744c0-.489.244-.733.489-1.222a2.567,2.567,0,0,1,2.2-1.222c46.68.244,88.961.489,119.511.733,7.576,0,14.664,0,20.53.244h2.2a3.017,3.017,0,0,1,1.955.978,3.633,3.633,0,0,1,.489,2.2v18.818a2.607,2.607,0,0,1-1.466,1.955C250.417,107.962,249.928,107.717,249.928,107.717Z" transform="translate(151.618 118.84)"/><path class="i" d="M176.71,86.645,109.5,86.4v6.355L176.71,93Z" transform="translate(158.116 124.76)"/><path class="k" d="M176.71,86.645,109.5,86.4v6.355L176.71,93Z" transform="translate(158.116 124.76)"/><path class="i" d="M141.86,101.144,105.2,100.9v6.843l36.66.244Z" transform="translate(151.907 145.698)"/><path class="f" d="M249.159,132.773a1.892,1.892,0,0,0,.733-.244c.489-.244,1.466-.489,1.711-1.711a4.159,4.159,0,0,0,.244-1.711V112.244a2.939,2.939,0,0,0-.489-1.955,3.593,3.593,0,0,0-1.466-1.222,6.644,6.644,0,0,0-2.2,0h-20.53c-30.55,0-72.586-.244-119.022-.489a2.864,2.864,0,0,0-2.688,2.2V129.84c.244.489.489,1.222.978,1.466a3.532,3.532,0,0,0,1.711.489H114.5c11,0,21.507,0,31.527.244,20.041,0,38.371.244,53.523.244s27.617.244,36.171.244h12.22a6.856,6.856,0,0,0,1.222.244H199.791c-15.153,0-33.483,0-53.523-.244-10.02,0-20.529,0-31.527-.244h-6.354a7.136,7.136,0,0,1-2.2-.489,2.492,2.492,0,0,1-1.222-1.955,6.644,6.644,0,0,1,0-2.2V110.533a3.427,3.427,0,0,1,3.422-2.933c46.436.244,88.472.489,119.022.733,7.576,0,14.419,0,20.529.244a6.766,6.766,0,0,1,2.2.244,2.584,2.584,0,0,1,1.711,1.466,3.632,3.632,0,0,1,.489,2.2v16.863a4.765,4.765,0,0,1-.244,1.955,4.106,4.106,0,0,1-1.955,1.711A2.435,2.435,0,0,0,249.159,132.773Z" transform="translate(151.41 155.373)"/><path class="i" d="M141.76,127.344,105.1,127.1v6.843l36.66.244Z" transform="translate(151.763 183.53)"/><path class="f" d="M248.915,158.973a1.892,1.892,0,0,0,.733-.244c.489-.244,1.466-.489,1.711-1.711a4.16,4.16,0,0,0,.244-1.711V138.444a2.939,2.939,0,0,0-.489-1.955,3.592,3.592,0,0,0-1.466-1.222,6.645,6.645,0,0,0-2.2,0H226.919c-30.55,0-72.586-.244-119.022-.489a2.864,2.864,0,0,0-2.688,2.2V155.8c.244.489.489,1.222.978,1.466a3.532,3.532,0,0,0,1.711.489h6.354c11,0,21.507,0,31.527.244,20.041.244,38.371.244,53.523.244s27.617.244,36.171.244h12.22a3.948,3.948,0,0,0,1.222.489H199.546c-15.153,0-33.483,0-53.523-.244-10.02,0-20.529,0-31.527-.244h-6.11a7.135,7.135,0,0,1-2.2-.489,2.492,2.492,0,0,1-1.222-1.955,6.644,6.644,0,0,1,0-2.2V136.733a3.427,3.427,0,0,1,3.422-2.933c46.436.244,88.472.489,119.022.733,7.576,0,14.419,0,20.529.244a6.766,6.766,0,0,1,2.2.244,2.584,2.584,0,0,1,1.711,1.466,3.632,3.632,0,0,1,.489,2.2v16.863a4.765,4.765,0,0,1-.244,1.955,4.106,4.106,0,0,1-1.955,1.711A2.966,2.966,0,0,1,248.915,158.973Z" transform="translate(151.41 193.205)"/><path class="i" d="M176.71,111.744,109.5,111.5v6.354l67.21.244Z" transform="translate(158.116 161.004)"/><path class="k" d="M176.71,111.744,109.5,111.5v6.354l67.21.244Z" transform="translate(158.116 161.004)"/></svg>